<svg xmlns="http://www.w3.org/2000/svg" xmlns:xlink="http://www.w3.org/1999/xlink" width="2560" zoomAndPan="magnify" viewBox="0 0 1920 1919.999921" height="2560" preserveAspectRatio="xMidYMid meet" version="1.0"><defs><g/><clipPath id="ee3879737a"><rect x="0" width="1755" y="0" height="1314"/></clipPath></defs><g transform="matrix(1, 0, 0, 1, 82, 303)"><g clip-path="url(#ee3879737a)"><g fill="#f3f3f3" fill-opacity="1"><g transform="translate(5.443039, 1064.148798)"><g><path d="M 814.53125 -695.640625 L 814.53125 -676 C 792.257812 -675.34375 775.390625 -672.882812 763.921875 -668.625 C 752.460938 -664.363281 744.765625 -656.5 740.828125 -645.03125 C 736.898438 -633.570312 734.9375 -615.726562 734.9375 -591.5 L 734.9375 -104.15625 C 734.9375 -80.570312 736.898438 -62.882812 740.828125 -51.09375 C 744.765625 -39.300781 752.460938 -31.4375 763.921875 -27.5 C 775.390625 -23.570312 792.257812 -20.957031 814.53125 -19.65625 L 814.53125 0 C 799.46875 -1.3125 780.632812 -2.128906 758.03125 -2.453125 C 735.4375 -2.785156 712.675781 -2.953125 689.75 -2.953125 C 664.195312 -2.953125 640.285156 -2.785156 618.015625 -2.453125 C 595.742188 -2.128906 577.734375 -1.3125 563.984375 0 L 563.984375 -19.65625 C 586.253906 -20.957031 603.117188 -23.570312 614.578125 -27.5 C 626.046875 -31.4375 633.742188 -39.300781 637.671875 -51.09375 C 641.597656 -62.882812 643.5625 -80.570312 643.5625 -104.15625 L 643.5625 -644.546875 L 647.5 -641.609375 L 406.78125 4.90625 L 391.046875 4.90625 L 143.453125 -632.765625 L 143.453125 -113.96875 C 143.453125 -90.394531 145.578125 -71.890625 149.828125 -58.453125 C 154.085938 -45.023438 162.601562 -35.523438 175.375 -29.953125 C 188.15625 -24.390625 207.316406 -20.957031 232.859375 -19.65625 L 232.859375 0 C 221.066406 -1.3125 205.671875 -2.128906 186.671875 -2.453125 C 167.679688 -2.785156 149.671875 -2.953125 132.640625 -2.953125 C 116.265625 -2.953125 99.722656 -2.785156 83.015625 -2.453125 C 66.316406 -2.128906 52.398438 -1.3125 41.265625 0 L 41.265625 -19.65625 C 63.535156 -20.957031 80.398438 -24.390625 91.859375 -29.953125 C 103.328125 -35.523438 111.023438 -45.023438 114.953125 -58.453125 C 118.890625 -71.890625 120.859375 -90.394531 120.859375 -113.96875 L 120.859375 -591.5 C 120.859375 -615.726562 118.890625 -633.570312 114.953125 -645.03125 C 111.023438 -656.5 103.328125 -664.363281 91.859375 -668.625 C 80.398438 -672.882812 63.535156 -675.34375 41.265625 -676 L 41.265625 -695.640625 C 52.398438 -694.984375 66.316406 -694.328125 83.015625 -693.671875 C 99.722656 -693.023438 116.265625 -692.703125 132.640625 -692.703125 C 147.054688 -692.703125 161.957031 -693.023438 177.34375 -693.671875 C 192.738281 -694.328125 205.675781 -694.984375 216.15625 -695.640625 L 439.203125 -108.078125 L 422.5 -100.21875 L 643.5625 -692.703125 C 651.425781 -692.703125 659.125 -692.703125 666.65625 -692.703125 C 674.1875 -692.703125 681.882812 -692.703125 689.75 -692.703125 C 712.675781 -692.703125 735.4375 -693.023438 758.03125 -693.671875 C 780.632812 -694.328125 799.46875 -694.984375 814.53125 -695.640625 Z M 814.53125 -695.640625 "/></g></g></g><g fill="#f3f3f3" fill-opacity="1"><g transform="translate(861.233497, 1064.148798)"><g><path d="M 891.171875 -695.640625 L 891.171875 -676 C 878.722656 -673.375 864.960938 -666 849.890625 -653.875 C 834.828125 -641.757812 822.710938 -620.640625 813.546875 -590.515625 L 627.84375 4.90625 C 626.53125 4.90625 625.21875 4.90625 623.90625 4.90625 C 622.601562 4.90625 621.296875 4.90625 619.984375 4.90625 C 618.671875 4.90625 617.359375 4.90625 616.046875 4.90625 C 614.742188 4.90625 613.4375 4.90625 612.125 4.90625 L 403.828125 -613.109375 C 395.304688 -638.648438 385.804688 -655.351562 375.328125 -663.21875 C 364.847656 -671.082031 355.023438 -675.34375 345.859375 -676 L 345.859375 -695.640625 C 357.648438 -694.984375 372.382812 -694.328125 390.0625 -693.671875 C 407.75 -693.023438 424.78125 -692.703125 441.15625 -692.703125 C 466.707031 -692.703125 490.617188 -693.023438 512.890625 -693.671875 C 535.160156 -694.328125 553.171875 -694.984375 566.921875 -695.640625 L 566.921875 -676 C 547.273438 -675.34375 531.71875 -673.375 520.25 -670.09375 C 508.789062 -666.820312 502.242188 -659.617188 500.609375 -648.484375 C 498.972656 -637.347656 502.082031 -619.003906 509.9375 -593.453125 L 656.34375 -140.5 L 642.578125 -128.71875 L 772.28125 -536.46875 C 784.070312 -572.5 789.472656 -600.503906 788.484375 -620.484375 C 787.503906 -640.460938 780.132812 -654.546875 766.375 -662.734375 C 752.625 -670.921875 731.992188 -675.34375 704.484375 -676 L 704.484375 -695.640625 C 723.484375 -694.984375 742.804688 -694.328125 762.453125 -693.671875 C 782.109375 -693.023438 800.453125 -692.703125 817.484375 -692.703125 C 834.515625 -692.703125 848.597656 -693.023438 859.734375 -693.671875 C 870.867188 -694.328125 881.347656 -694.984375 891.171875 -695.640625 Z M 204.375 -695.640625 L 204.375 -676 C 187.34375 -674.6875 175.054688 -671.410156 167.515625 -666.171875 C 159.984375 -660.929688 156.378906 -652.578125 156.703125 -641.109375 C 157.035156 -629.648438 160.476562 -613.765625 167.03125 -593.453125 L 319.328125 -128.71875 L 294.765625 -104.15625 L 432.328125 -543.34375 L 447.0625 -519.765625 L 284.9375 4.90625 C 283.625 4.90625 282.3125 4.90625 281 4.90625 C 279.695312 4.90625 278.390625 4.90625 277.078125 4.90625 C 275.765625 4.90625 274.453125 4.90625 273.140625 4.90625 C 271.835938 4.90625 270.53125 4.90625 269.21875 4.90625 L 60.921875 -613.109375 C 52.398438 -638.648438 41.585938 -655.351562 28.484375 -663.21875 C 15.390625 -671.082031 3.601562 -675.34375 -6.875 -676 L -6.875 -695.640625 C 6.21875 -694.984375 22.425781 -694.328125 41.75 -693.671875 C 61.082031 -693.023438 79.914062 -692.703125 98.25 -692.703125 C 119.863281 -692.703125 140.003906 -693.023438 158.671875 -693.671875 C 177.347656 -694.328125 192.582031 -694.984375 204.375 -695.640625 Z M 204.375 -695.640625 "/></g></g></g></g></g></svg>